<svg width="23" height="21" viewBox="0 0 23 21" fill="none" xmlns="http://www.w3.org/2000/svg">
<path d="M13.1601 13.8176L15.3071 17.5363C15.7213 18.2537 15.4755 19.1711 14.758 19.5853C14.0406 19.9995 13.1232 19.7537 12.709 19.0363L10.0555 14.4402M18.4543 2.71951L18.8203 1.35349M20.4543 6.18363L21.8203 6.54965M7.09809 15.0497L17.7168 12.6182C19.0285 12.3178 19.6753 10.834 19.0025 9.66864L14.7104 2.23453C14.0376 1.0692 12.4291 0.887401 11.5132 1.87316L4.09809 9.85351L7.09809 15.0497ZM4.34812 10.2865L6.84812 14.6166C7.26233 15.3341 7.01652 16.2514 6.29908 16.6657C5.58164 17.0799 4.66425 16.8341 4.25004 16.1166L1.75004 11.7865C1.33583 11.0691 1.58164 10.1517 2.29908 9.73746C3.01652 9.32325 3.9339 9.56906 4.34812 10.2865Z" stroke="white" stroke-width="1.5" stroke-linecap="round" stroke-linejoin="round"/>
</svg>
