<svg width="24" height="21" viewBox="0 0 24 21" fill="none" xmlns="http://www.w3.org/2000/svg">
<path fill-rule="evenodd" clip-rule="evenodd" d="M7.98511 7.79471C8.13134 7.95123 8.2094 8.15943 8.20213 8.37351C8.19486 8.58758 8.10285 8.79 7.94634 8.93625L3.33065 13.2439C3.24963 13.3197 3.15388 13.3779 3.04938 13.415C2.94488 13.4521 2.83385 13.4673 2.72322 13.4596C2.6126 13.4519 2.50473 13.4215 2.40636 13.3704C2.30798 13.3192 2.2212 13.2483 2.15142 13.1621L0.844033 11.5467C0.777281 11.4643 0.727422 11.3695 0.697304 11.2677C0.667185 11.166 0.657397 11.0594 0.668497 10.9539C0.679597 10.8484 0.711369 10.7461 0.761998 10.6529C0.812627 10.5596 0.881121 10.4773 0.963571 10.4106C1.04602 10.3438 1.14081 10.2939 1.24253 10.2638C1.34425 10.2337 1.4509 10.2239 1.55641 10.235C1.66191 10.2461 1.76419 10.2779 1.85741 10.3285C1.95064 10.3791 2.03297 10.4476 2.09972 10.5301L2.86219 11.4724L6.84357 7.75594C7.00009 7.60971 7.20829 7.53165 7.42237 7.53892C7.63645 7.54619 7.83887 7.6382 7.98511 7.79471ZM11.4334 10.4999C11.4334 10.2857 11.5185 10.0803 11.67 9.92881C11.8215 9.77734 12.0269 9.69225 12.2411 9.69225H23.0103C23.2245 9.69225 23.43 9.77734 23.5815 9.92881C23.7329 10.0803 23.818 10.2857 23.818 10.4999C23.818 10.7142 23.7329 10.9196 23.5815 11.0711C23.43 11.2225 23.2245 11.3076 23.0103 11.3076H12.2411C12.0269 11.3076 11.8215 11.2225 11.67 11.0711C11.5185 10.9196 11.4334 10.7142 11.4334 10.4999Z" fill="#A5B4CB"/>
<path fill-rule="evenodd" clip-rule="evenodd" d="M7.98511 0.256255C8.13134 0.412778 8.2094 0.620977 8.20213 0.835054C8.19486 1.04913 8.10285 1.25155 7.94634 1.39779L3.33065 5.70548C3.24963 5.7812 3.15388 5.83943 3.04938 5.87653C2.94488 5.91363 2.83385 5.92882 2.72322 5.92114C2.6126 5.91346 2.50473 5.88309 2.40636 5.8319C2.30798 5.78072 2.2212 5.70983 2.15142 5.62364L0.844033 4.00826C0.777281 3.92581 0.727422 3.83101 0.697304 3.7293C0.667185 3.62758 0.657397 3.52092 0.668497 3.41542C0.690915 3.20235 0.797056 3.00691 0.963571 2.8721C1.13009 2.73729 1.34334 2.67415 1.55641 2.69657C1.76948 2.71898 1.96491 2.82512 2.09972 2.99164L2.86219 3.93395L6.84357 0.217486C7.00009 0.0712591 7.20829 -0.00680461 7.42237 0.000465927C7.63645 0.00773646 7.83887 0.0997458 7.98511 0.256255ZM7.98511 15.3332C8.13134 15.4897 8.2094 15.6979 8.20213 15.912C8.19486 16.1261 8.10285 16.3285 7.94634 16.4747L3.33065 20.7824C3.24963 20.8581 3.15388 20.9164 3.04938 20.9535C2.94488 20.9906 2.83385 21.0057 2.72322 20.9981C2.6126 20.9904 2.50473 20.96 2.40636 20.9088C2.30798 20.8576 2.2212 20.7867 2.15142 20.7006L0.844033 19.0852C0.777281 19.0027 0.727422 18.9079 0.697304 18.8062C0.667185 18.7045 0.657397 18.5978 0.668497 18.4923C0.679597 18.3868 0.711369 18.2846 0.761998 18.1913C0.812627 18.0981 0.881121 18.0158 0.963571 17.949C1.04602 17.8823 1.14081 17.8324 1.24253 17.8023C1.34425 17.7722 1.4509 17.7624 1.55641 17.7735C1.66191 17.7846 1.76419 17.8164 1.85741 17.867C1.95064 17.9176 2.03297 17.9861 2.09972 18.0686L2.86219 19.0109L6.84357 15.2944C7.00009 15.1482 7.20829 15.0701 7.42237 15.0774C7.63645 15.0847 7.83887 15.1767 7.98511 15.3332ZM11.4334 18.0384C11.4334 17.8242 11.5185 17.6188 11.67 17.4673C11.8215 17.3158 12.0269 17.2307 12.2411 17.2307H23.0103C23.2245 17.2307 23.43 17.3158 23.5815 17.4673C23.7329 17.6188 23.818 17.8242 23.818 18.0384C23.818 18.2526 23.7329 18.4581 23.5815 18.6095C23.43 18.761 23.2245 18.8461 23.0103 18.8461H12.2411C12.0269 18.8461 11.8215 18.761 11.67 18.6095C11.5185 18.4581 11.4334 18.2526 11.4334 18.0384ZM11.4334 2.96149C11.4334 2.74727 11.5185 2.54183 11.67 2.39036C11.8215 2.23889 12.0269 2.15379 12.2411 2.15379H23.0103C23.2245 2.15379 23.43 2.23889 23.5815 2.39036C23.7329 2.54183 23.818 2.74727 23.818 2.96149C23.818 3.1757 23.7329 3.38114 23.5815 3.53261C23.43 3.68408 23.2245 3.76918 23.0103 3.76918H12.2411C12.0269 3.76918 11.8215 3.68408 11.67 3.53261C11.5185 3.38114 11.4334 3.1757 11.4334 2.96149Z" fill="#A5B4CB"/>
</svg>
