<svg width="21" height="21" viewBox="0 0 21 21" fill="none" xmlns="http://www.w3.org/2000/svg">
<path d="M18.9302 10.3256C18.9302 8.01637 18.0205 5.9196 16.54 4.37408M18.9302 10.3256C18.9302 12.6348 18.0205 14.7316 16.54 16.2771M18.9302 10.3256H1.72089M10.3255 18.9303C12.7685 18.9303 14.9737 17.9122 16.54 16.2771M10.3255 18.9303C7.88255 18.9303 5.67735 17.9122 4.11107 16.2771M10.3255 18.9303V1.72095M1.72089 10.3256C1.72089 8.01637 2.63054 5.9196 4.11107 4.37408M1.72089 10.3256C1.72089 12.6348 2.63054 14.7316 4.11107 16.2771M10.3255 1.72095C12.7685 1.72095 14.9737 2.73903 16.54 4.37408M10.3255 1.72095C7.88255 1.72095 5.67735 2.73903 4.11107 4.37408M16.54 4.37408C15.0595 5.9196 14.1498 8.01637 14.1498 10.3256C14.1498 12.6348 15.0595 14.7316 16.54 16.2771M4.11107 4.37408C5.59159 5.9196 6.50125 8.01637 6.50125 10.3256C6.50125 12.6348 5.59159 14.7316 4.11107 16.2771" stroke="#A5B4CB" stroke-width="1.2907" stroke-linecap="round"/>
</svg>
