<svg width="21" height="21" viewBox="0 0 21 21" fill="none" xmlns="http://www.w3.org/2000/svg">
<g clip-path="url(#clip0_189_744)">
<g clip-path="url(#clip1_189_744)">
<path d="M18.8917 14.8604C18.3519 14.1387 17.6098 13.6226 16.7456 13.3675L13.0611 12.2187C12.9945 12.1979 12.9259 12.1888 12.8581 12.1903C12.7226 12.0469 12.6309 11.8303 12.6309 11.6358V10.8043C12.7907 10.698 12.9462 10.5799 13.0971 10.45C13.8223 9.82555 14.2774 8.92242 14.3716 7.93806C14.9011 7.92306 15.3272 7.48765 15.3272 6.95459V6.20018C15.3272 5.90699 15.1974 5.63417 14.9789 5.44944V4.47347C14.9789 4.30608 14.8432 4.17044 14.6759 4.17044C14.5085 4.17044 14.3728 4.30608 14.3728 4.47347L14.3728 5.12434C14.3474 5.11575 14.3219 5.10777 14.2965 5.09934C14.2581 5.08655 14.2195 5.07388 14.181 5.06146C14.1307 5.04529 14.0804 5.02952 14.0301 5.01399C13.9922 5.00229 13.9543 4.99051 13.9164 4.97918C13.8644 4.96365 13.8124 4.94869 13.7603 4.9338C13.724 4.92344 13.6877 4.91283 13.6514 4.90279C13.5953 4.8873 13.5392 4.87254 13.4831 4.85781C13.4507 4.84934 13.4184 4.84051 13.3861 4.83228C13.3145 4.81409 13.2429 4.79687 13.1713 4.77997C13.1543 4.77598 13.1374 4.77158 13.1204 4.76767C13.0319 4.74718 12.9434 4.72774 12.8548 4.70918C12.8279 4.70358 12.801 4.69853 12.7741 4.69309C12.7121 4.68055 12.65 4.66804 12.5879 4.65642C12.5536 4.65001 12.5192 4.64416 12.4849 4.63803C12.4301 4.62827 12.3753 4.61855 12.3205 4.60952C12.2835 4.60343 12.2466 4.59782 12.2095 4.59205C12.1571 4.5839 12.1048 4.57588 12.0523 4.56842C12.0144 4.56301 11.9764 4.55793 11.9383 4.55285C11.8867 4.54599 11.8351 4.53933 11.7835 4.53312C11.7451 4.52848 11.7067 4.52409 11.6683 4.51981C11.6167 4.51409 11.5652 4.50876 11.5136 4.50372C11.4755 4.49997 11.4373 4.4963 11.3991 4.49291C11.3468 4.48827 11.2944 4.48416 11.2421 4.48016C11.2048 4.47734 11.1676 4.47444 11.1303 4.47198C11.0759 4.46835 11.0214 4.4654 10.9669 4.46254C10.9319 4.46068 10.8968 4.45859 10.8618 4.45701C10.8018 4.45435 10.7418 4.45254 10.6818 4.45076C10.6523 4.44987 10.6229 4.44862 10.5935 4.44798C10.5041 4.446 10.4147 4.44487 10.3253 4.44487C10.236 4.44487 10.1466 4.446 10.0573 4.44798C10.0277 4.44862 9.9982 4.44991 9.96868 4.45076C9.90878 4.45254 9.84884 4.45435 9.78895 4.45701C9.75377 4.45859 9.71856 4.46068 9.68339 4.46254C9.62906 4.4654 9.57477 4.46835 9.52044 4.47198C9.48313 4.47448 9.44582 4.47738 9.40851 4.4802C9.35624 4.48416 9.30393 4.48827 9.25165 4.49291C9.21338 4.4963 9.1751 4.50001 9.13682 4.50376C9.08539 4.5088 9.03401 4.51413 8.98258 4.51981C8.94402 4.52409 8.90546 4.52852 8.86694 4.53316C8.81556 4.53933 8.76417 4.54595 8.71279 4.55277C8.67455 4.55785 8.63631 4.56297 8.59812 4.56842C8.54592 4.57588 8.49373 4.58386 8.44158 4.59197C8.40439 4.59774 8.3672 4.60339 8.33001 4.60952C8.27556 4.61851 8.22111 4.62815 8.1667 4.63787C8.13197 4.64408 8.09724 4.64997 8.06256 4.65647C8.00101 4.66796 7.93954 4.68034 7.87807 4.69281C7.85068 4.69837 7.82325 4.7035 7.79587 4.70922C7.70737 4.72774 7.61896 4.74718 7.53059 4.76763C7.5126 4.77178 7.49461 4.77642 7.47662 4.78069C7.40604 4.79735 7.33549 4.81433 7.26499 4.83224C7.23191 4.84063 7.19888 4.84967 7.1658 4.85834C7.11047 4.87286 7.05513 4.88738 6.99983 4.90267C6.9628 4.91291 6.92582 4.92368 6.88883 4.93429C6.83756 4.94897 6.78634 4.96365 6.73511 4.97898C6.69643 4.99055 6.65779 5.00253 6.61915 5.01447C6.56966 5.02976 6.52021 5.04525 6.47084 5.06114C6.43144 5.07384 6.39207 5.08679 6.35275 5.09986C6.32782 5.10813 6.30285 5.11595 6.27797 5.12438V3.05556C6.27797 2.33511 6.76742 1.71541 7.46827 1.54859L9.68057 1.02198C10.0502 0.934013 10.4414 0.932359 10.8117 1.01734L13.17 1.55819C13.8782 1.72061 14.3728 2.34148 14.3728 3.06798C14.3728 3.23537 14.5084 3.37101 14.6758 3.37101C14.8432 3.37101 14.9788 3.23537 14.9788 3.06798C14.9788 2.05712 14.2907 1.19336 13.3055 0.967369L10.9471 0.426567C10.4864 0.320972 9.9999 0.322948 9.54016 0.432415L7.32791 0.95902C6.35283 1.1911 5.67182 2.05325 5.67182 3.0556L5.6719 5.44944C5.45333 5.63417 5.3235 5.90699 5.3235 6.20022V6.95463C5.3235 7.48769 5.74963 7.9231 6.27914 7.93811C6.37328 8.92246 6.82841 9.82559 7.55362 10.45C7.70455 10.58 7.86 10.6981 8.0198 10.8043V11.6359C8.0198 11.8304 7.92812 12.047 7.7926 12.1904C7.7248 12.1888 7.65627 12.198 7.58964 12.2188L3.90514 13.3676C3.0409 13.6227 2.29887 14.1388 1.75903 14.8604C1.21879 15.5827 0.933228 16.4412 0.933228 17.3432V17.5692C0.933228 17.7366 1.06887 17.8722 1.23626 17.8722C1.40365 17.8722 1.53929 17.7366 1.53929 17.5692V17.3432C1.53929 16.5731 1.78311 15.8401 2.24437 15.2235C2.70568 14.6068 3.33994 14.1659 4.07866 13.9484C4.08019 13.948 4.08172 13.9475 4.08326 13.947L6.04548 13.3352L7.68475 15.206C7.92062 15.4752 8.25451 15.6216 8.59848 15.6216C8.73005 15.6216 8.86315 15.6002 8.99271 15.556L9.36318 15.4298L9.88514 16.532C9.72481 16.5931 9.57663 16.6875 9.44889 16.8127C9.20111 17.0559 9.05902 17.3933 9.05902 17.7384V19.5889C9.05902 19.8323 9.25702 20.0303 9.50039 20.0303H10.2597C10.503 20.0303 10.701 19.8323 10.701 19.5889V18.9255C11.218 18.764 11.5916 18.2782 11.5916 17.7166C11.5916 17.1776 11.2467 16.7113 10.7662 16.5305L11.2875 15.4297L11.6579 15.5559C11.7876 15.6001 11.9206 15.6215 12.0522 15.6215C12.3962 15.6215 12.73 15.4751 12.9659 15.2059L14.6052 13.3351L16.5674 13.9469C16.5689 13.9474 16.5705 13.9479 16.572 13.9483C17.3107 14.1658 17.945 14.6067 18.4063 15.2234C18.8676 15.84 19.1114 16.573 19.1114 17.3431V19.9367C19.1114 20.1888 18.9063 20.3939 18.6541 20.3939H17.1338V17.4921C17.1338 17.3247 16.9982 17.1891 16.8308 17.1891C16.6634 17.1891 16.5278 17.3247 16.5278 17.4921V20.3939H4.1229V17.4921C4.1229 17.3247 3.98726 17.1891 3.81987 17.1891C3.65249 17.1891 3.51684 17.3247 3.51684 17.4921V20.3939H1.99652C1.74443 20.3939 1.53929 20.1888 1.53929 19.9366V18.9791C1.53929 18.8117 1.40365 18.6761 1.23626 18.6761C1.06887 18.6761 0.933228 18.8117 0.933228 18.9791V19.9366C0.933228 20.523 1.41022 21 1.99656 21H18.6543C19.2406 21 19.7176 20.523 19.7176 19.9366V17.3431C19.7175 16.4411 19.4319 15.5826 18.8917 14.8604ZM6.5977 5.65684C6.62258 5.64869 6.64755 5.64111 6.67248 5.63312C6.73249 5.61388 6.79251 5.59472 6.85261 5.57645C6.88451 5.56673 6.91654 5.55761 6.94848 5.54818C7.00181 5.53241 7.05513 5.51663 7.10853 5.50163C7.14334 5.49183 7.17819 5.48259 7.21304 5.47315C7.26366 5.4594 7.31424 5.44565 7.3649 5.43258C7.4014 5.42314 7.43798 5.41419 7.47452 5.40511C7.52365 5.39289 7.57274 5.38075 7.6219 5.36917C7.65946 5.36034 7.69705 5.35187 7.73464 5.3434C7.78284 5.33251 7.83108 5.32178 7.87932 5.31149C7.91756 5.30335 7.95583 5.29552 7.99411 5.28778C8.04191 5.2781 8.08966 5.26862 8.13746 5.25954C8.17602 5.2522 8.21462 5.2451 8.25318 5.23817C8.30081 5.22958 8.34845 5.22131 8.39608 5.21332C8.4348 5.20683 8.47348 5.20049 8.5122 5.19436C8.55992 5.18686 8.60764 5.17972 8.65535 5.17278C8.69395 5.16718 8.73259 5.16165 8.77123 5.15641C8.81931 5.14992 8.86739 5.14391 8.91547 5.13802C8.95374 5.13334 8.99198 5.12858 9.03026 5.1243C9.07902 5.11882 9.12779 5.11394 9.17655 5.10906C9.2141 5.10531 9.25169 5.10139 9.28928 5.09801C9.3393 5.09349 9.38931 5.0897 9.43933 5.08582C9.47567 5.08304 9.51205 5.07998 9.54839 5.07752C9.60075 5.07397 9.65306 5.07122 9.70541 5.0684C9.73942 5.06659 9.77342 5.06437 9.80738 5.06283C9.86522 5.06021 9.9231 5.05852 9.98094 5.05678C10.0095 5.05594 10.038 5.05465 10.0665 5.054C10.1528 5.05206 10.2391 5.05098 10.3253 5.05098C10.3255 5.05098 10.3257 5.05098 10.3259 5.05098C10.412 5.05098 10.4981 5.05202 10.5842 5.05396C10.6129 5.05461 10.6417 5.0559 10.6703 5.05678C10.7279 5.05852 10.7854 5.06021 10.843 5.06279C10.8776 5.06437 10.9121 5.06658 10.9467 5.06844C10.9985 5.07122 11.0502 5.07397 11.102 5.07743C11.1389 5.07994 11.1758 5.083 11.2126 5.08586C11.2621 5.08966 11.3115 5.09345 11.3609 5.09788C11.3991 5.10131 11.4372 5.10527 11.4754 5.1091C11.5236 5.1139 11.5718 5.11874 11.6199 5.12418C11.6587 5.12854 11.6975 5.13334 11.7363 5.1381C11.7838 5.14391 11.8313 5.14984 11.8788 5.15625C11.918 5.16153 11.9572 5.16718 11.9964 5.17287C12.0435 5.17968 12.0906 5.18674 12.1377 5.19416C12.177 5.20033 12.2163 5.20679 12.2556 5.21336C12.3026 5.22123 12.3496 5.22941 12.3966 5.23788C12.4358 5.24494 12.4751 5.2522 12.5143 5.25967C12.5614 5.26862 12.6084 5.27794 12.6554 5.28746C12.6944 5.29536 12.7334 5.30335 12.7724 5.31162C12.8198 5.32174 12.8672 5.33227 12.9146 5.34296C12.9531 5.35163 12.9914 5.36026 13.0298 5.36929C13.0779 5.38063 13.126 5.39249 13.174 5.40443C13.2116 5.41378 13.2493 5.42302 13.2869 5.43274C13.3361 5.44549 13.3853 5.45884 13.4345 5.47219C13.4707 5.48203 13.507 5.49167 13.5433 5.50183C13.5948 5.51631 13.6462 5.53156 13.6977 5.54676C13.7315 5.55673 13.7653 5.56641 13.7991 5.57665C13.856 5.59396 13.9128 5.61215 13.9696 5.6303C13.9978 5.63933 14.026 5.64792 14.0542 5.65712C14.1331 5.68293 14.2118 5.70967 14.2905 5.7371C14.2965 5.7392 14.3026 5.74118 14.3087 5.74327C14.3095 5.74356 14.3102 5.74384 14.311 5.74412L14.2331 6.03356C14.2044 6.14036 14.1353 6.2287 14.0385 6.28218C13.9429 6.33498 13.8332 6.34647 13.7294 6.31465C13.5882 6.27129 13.4469 6.23063 13.3055 6.19268C11.1845 5.62352 9.03909 5.66414 6.92142 6.31465C6.81768 6.34647 6.70789 6.33498 6.61242 6.28218C6.58822 6.26879 6.56575 6.25326 6.54522 6.2358C6.48359 6.1834 6.4393 6.11366 6.41772 6.03356L6.37969 5.89211L6.33992 5.74412C6.42567 5.71411 6.51162 5.68499 6.5977 5.65684ZM7.9491 9.99064C7.28181 9.41611 6.8877 8.55526 6.86782 7.6289C6.86431 7.46414 6.72967 7.33236 6.56482 7.33236H6.30733C6.099 7.33236 5.9296 7.16292 5.9296 6.95463V6.42892C5.93053 6.43053 5.93162 6.4321 5.93254 6.43372C5.9417 6.44965 5.9513 6.46526 5.9613 6.48062C5.96469 6.48579 5.96812 6.49091 5.97159 6.49603C5.98042 6.5091 5.98958 6.52193 5.99901 6.53451C6.00212 6.53867 6.00511 6.5429 6.00829 6.54702C6.02067 6.56299 6.03346 6.57864 6.04681 6.59384C6.04988 6.59735 6.0531 6.6007 6.05621 6.60417C6.06698 6.61615 6.07803 6.62784 6.08944 6.6393C6.09392 6.64382 6.09844 6.64829 6.10304 6.65273C6.11522 6.66455 6.12768 6.67604 6.14047 6.68722C6.14329 6.68968 6.14599 6.6923 6.14886 6.69472C6.16443 6.70803 6.18048 6.72082 6.19689 6.73324C6.20129 6.73655 6.20577 6.73969 6.2102 6.74296C6.22319 6.75244 6.23638 6.76163 6.24989 6.77051C6.25477 6.77373 6.25965 6.777 6.26462 6.78015C6.2824 6.79144 6.30047 6.80245 6.31907 6.81274C6.31991 6.81318 6.32076 6.81358 6.32161 6.81403C6.33798 6.82302 6.35452 6.83145 6.37122 6.83948C6.37703 6.84226 6.38288 6.84484 6.38872 6.84751C6.40082 6.85307 6.41301 6.8584 6.42527 6.86344C6.43172 6.8661 6.43817 6.86868 6.44467 6.87122C6.45717 6.87606 6.4698 6.88062 6.48242 6.88494C6.48819 6.88691 6.49392 6.88901 6.49972 6.89086C6.51787 6.89671 6.53611 6.90216 6.55446 6.90692C6.55668 6.90748 6.55894 6.90793 6.56115 6.90849C6.57749 6.91265 6.5939 6.91632 6.6104 6.91962C6.61669 6.92087 6.62299 6.92192 6.62932 6.92305C6.64206 6.92535 6.65481 6.92741 6.6676 6.92918C6.67441 6.93015 6.68127 6.93104 6.68809 6.93184C6.70127 6.93342 6.7145 6.93463 6.72773 6.93564C6.73366 6.93608 6.73959 6.93669 6.74552 6.93705C6.76428 6.93814 6.78303 6.93882 6.80187 6.93882C6.80243 6.93882 6.803 6.93886 6.80356 6.93886C6.80554 6.93886 6.80747 6.93866 6.80945 6.93862C6.82917 6.9385 6.8489 6.93769 6.86866 6.9364C6.87439 6.93604 6.88008 6.93564 6.8858 6.93515C6.90758 6.93334 6.92941 6.93104 6.95115 6.92777C6.95264 6.92753 6.95413 6.92721 6.95562 6.927C6.97599 6.92386 6.99632 6.91991 7.01661 6.91547C7.02266 6.91414 7.02871 6.91277 7.03476 6.91135C7.05533 6.90647 7.07586 6.90111 7.09631 6.8949C7.09732 6.89462 7.09833 6.89441 7.09933 6.89409C7.63449 6.72969 8.17154 6.60639 8.70956 6.52419C9.98727 6.32901 11.2703 6.36559 12.546 6.63398C12.8817 6.7046 13.2168 6.79128 13.5513 6.89401C13.8136 6.97472 14.0908 6.94576 14.3316 6.81266C14.3501 6.80241 14.3681 6.79152 14.3858 6.78027C14.391 6.77696 14.3961 6.77353 14.4012 6.77014C14.4144 6.76139 14.4275 6.75236 14.4402 6.74304C14.4448 6.73969 14.4494 6.73646 14.4539 6.73308C14.4703 6.72069 14.4863 6.70791 14.5018 6.69464C14.5047 6.69222 14.5073 6.68968 14.5101 6.68722C14.523 6.67596 14.5355 6.66439 14.5478 6.65253C14.5523 6.64817 14.5567 6.64378 14.5611 6.63934C14.5726 6.62772 14.5839 6.61583 14.5948 6.60368C14.5978 6.60042 14.6008 6.59723 14.6037 6.59392C14.6171 6.57864 14.63 6.56295 14.6424 6.54685C14.6455 6.54282 14.6485 6.53871 14.6515 6.53463C14.661 6.52197 14.6702 6.50906 14.679 6.49595C14.6825 6.49083 14.6859 6.48575 14.6893 6.48054C14.6992 6.4653 14.7088 6.44985 14.7178 6.43408C14.7188 6.4323 14.72 6.43065 14.721 6.42888V6.95459C14.721 7.16292 14.5516 7.33232 14.3433 7.33232H14.0858C13.921 7.33232 13.7864 7.4641 13.7828 7.62886C13.7629 8.55522 13.3688 9.41607 12.7015 9.9906C12.532 10.1366 12.3557 10.2651 12.1735 10.3763C12.1725 10.3769 12.1714 10.3773 12.1704 10.3779C12.1423 10.3949 12.1139 10.4113 12.0855 10.4276C12.0766 10.4327 12.0678 10.4379 12.0588 10.4429C12.0289 10.4598 11.9988 10.476 11.9685 10.4919C11.9603 10.4962 11.9522 10.5004 11.944 10.5047C11.8059 10.5758 11.6646 10.6377 11.5201 10.69C11.5165 10.6912 11.5129 10.6925 11.5093 10.6938C11.4005 10.7327 11.2899 10.7663 11.1778 10.7944C11.1746 10.7952 11.1714 10.7961 11.1683 10.7969C11.1362 10.8048 11.1039 10.8121 11.0715 10.8192C11.058 10.8221 11.0445 10.825 11.031 10.8278C11.0013 10.8339 10.9715 10.8398 10.9417 10.8452C10.9231 10.8485 10.9044 10.8514 10.8857 10.8544C10.8447 10.8612 10.8034 10.8672 10.762 10.8725C10.7338 10.8762 10.7056 10.8798 10.6772 10.8827C10.6568 10.8848 10.6363 10.8866 10.6158 10.8884C10.5853 10.8911 10.5547 10.8935 10.524 10.8954C10.5063 10.8965 10.4885 10.8978 10.4708 10.8986C10.4251 10.9009 10.3792 10.9026 10.3329 10.9032C10.3304 10.9032 10.3278 10.9034 10.3252 10.9034C10.3226 10.9034 10.32 10.9032 10.3174 10.9032C10.2713 10.9026 10.2254 10.9009 10.1796 10.8986C10.1618 10.8978 10.1441 10.8965 10.1263 10.8954C10.0956 10.8935 10.0651 10.8911 10.0346 10.8884C10.0141 10.8866 9.9936 10.8848 9.97319 10.8827C9.9448 10.8797 9.9166 10.8761 9.88841 10.8725C9.84699 10.8672 9.80573 10.8612 9.76466 10.8544C9.74603 10.8514 9.72732 10.8485 9.70872 10.8452C9.67883 10.8398 9.64911 10.8339 9.61942 10.8278C9.60587 10.825 9.59232 10.8221 9.57885 10.8192C9.5465 10.8121 9.51423 10.8048 9.48212 10.7969C9.47894 10.7961 9.47579 10.7952 9.4726 10.7944C9.36043 10.7663 9.24988 10.7327 9.1411 10.6938C9.13747 10.6925 9.13388 10.6912 9.13029 10.69C8.98581 10.6377 8.84448 10.5758 8.70641 10.5047C8.69823 10.5004 8.69004 10.4962 8.68189 10.4919C8.65164 10.476 8.62151 10.4598 8.59154 10.4429C8.58263 10.4379 8.57379 10.4327 8.56488 10.4276C8.53649 10.4113 8.50813 10.3949 8.48002 10.3779C8.47901 10.3773 8.47792 10.3769 8.47691 10.3763C8.29484 10.2651 8.11866 10.1367 7.9491 9.99064ZM8.79729 14.9821C8.5621 15.0623 8.30432 14.9933 8.1406 14.8065L6.67845 13.1378L7.77009 12.7974C7.77142 12.797 7.7728 12.7974 7.77417 12.7972C7.7776 12.7967 7.78102 12.7961 7.78433 12.7969C7.78486 12.7971 7.78538 12.7973 7.7859 12.7975C7.78889 12.7984 7.79151 12.8001 7.79409 12.8019C7.79522 12.8027 7.79659 12.8029 7.7976 12.8038L7.79756 12.8038L9.75277 14.6567L8.79729 14.9821ZM10.9855 17.7166C10.9855 18.06 10.7176 18.349 10.3754 18.3745C10.2173 18.3863 10.095 18.5181 10.095 18.6768V19.4241H9.66512V17.7382C9.66512 17.5548 9.74103 17.3751 9.87341 17.2452C10.0008 17.1202 10.1667 17.0528 10.3382 17.0564C10.6952 17.0632 10.9855 17.3594 10.9855 17.7166ZM9.94064 15.233L10.3254 15.1019L10.7101 15.2329L10.3254 16.0453L9.94064 15.233ZM10.3254 14.3642L8.33796 12.4808C8.51704 12.2384 8.62591 11.931 8.62591 11.6358V11.1398C8.8901 11.2593 9.16429 11.3499 9.4478 11.4115C9.44873 11.4117 9.44969 11.4119 9.45062 11.4121C9.51068 11.4251 9.57118 11.4369 9.63213 11.4472C9.65322 11.4509 9.6744 11.4543 9.69561 11.4576C9.72558 11.4623 9.75555 11.4669 9.78572 11.4709C9.82658 11.4764 9.8676 11.4811 9.90874 11.4855C9.92713 11.4874 9.94552 11.4893 9.964 11.491C10.0146 11.4957 10.0654 11.4995 10.1164 11.5024C10.1278 11.5031 10.1393 11.5035 10.1507 11.5041C10.2076 11.5069 10.2646 11.509 10.322 11.5096H10.3221C10.3232 11.5096 10.3243 11.5096 10.3254 11.5096C10.3266 11.5096 10.3277 11.5096 10.3288 11.5096H10.3288C10.3862 11.509 10.4433 11.5069 10.5002 11.5041C10.5116 11.5035 10.523 11.5031 10.5344 11.5024C10.5855 11.4995 10.6363 11.4957 10.6869 11.491C10.7053 11.4893 10.7237 11.4874 10.7421 11.4855C10.7833 11.4812 10.8243 11.4764 10.8651 11.4709C10.8953 11.4668 10.9253 11.4623 10.9553 11.4576C10.9765 11.4543 10.9976 11.4509 11.0187 11.4472C11.0796 11.4368 11.1401 11.4251 11.2002 11.4121C11.2011 11.4119 11.2021 11.4117 11.203 11.4115C11.4865 11.3499 11.7607 11.2593 12.0249 11.1398V11.6358C12.0249 11.931 12.1338 12.2384 12.3129 12.4808L10.3254 14.3642ZM12.5101 14.8064C12.3464 14.9933 12.0888 15.0623 11.8534 14.9821L10.8979 14.6566L12.5171 13.1222L12.8531 12.8038C12.8535 12.8033 12.8542 12.8033 12.8547 12.8029C12.8576 12.8005 12.8608 12.7988 12.8644 12.7977C12.8651 12.7975 12.8657 12.7971 12.8665 12.7968C12.8711 12.7958 12.876 12.7959 12.8808 12.7974L13.9723 13.1377L12.5101 14.8064Z" fill="#A5B4CB"/>
</g>
</g>
<defs>
<clipPath id="clip0_189_744">
<rect width="20.6512" height="20.6512" fill="white" transform="translate(-6.10352e-05 0.348816)"/>
</clipPath>
<clipPath id="clip1_189_744">
<rect width="20.6512" height="20.6512" fill="white" transform="translate(-6.10352e-05 0.348816)"/>
</clipPath>
</defs>
</svg>
