<svg width="157" height="157" viewBox="0 0 157 157" fill="none" xmlns="http://www.w3.org/2000/svg">
<rect width="157" height="157" rx="10" fill="#F4F7FE"/>
<rect x="23.8281" y="25.9941" width="108.317" height="108.317" rx="11" fill="white"/>
<mask id="mask0_603_6843" style="mask-type:luminance" maskUnits="userSpaceOnUse" x="47" y="49" width="61" height="63">
<path d="M107.085 74.9938H78.4191V86.8795H94.9192C93.381 94.4304 86.9488 98.7651 78.4191 98.7651C68.3513 98.7651 60.2411 90.6549 60.2411 80.5871C60.2411 70.5192 68.3513 62.409 78.4191 62.409C82.7539 62.409 86.6691 63.9472 89.7454 66.4641L98.6946 57.5149C93.2412 52.7607 86.2497 49.8242 78.4191 49.8242C61.3597 49.8242 47.6562 63.5277 47.6562 80.5871C47.6562 97.6465 61.3597 111.35 78.4191 111.35C93.8005 111.35 107.784 100.163 107.784 80.5871C107.784 78.7693 107.504 76.8116 107.085 74.9938Z" fill="white"/>
</mask>
<g mask="url(#mask0_603_6843)">
<path d="M44.8594 98.7644V62.4083L68.6307 80.5864L44.8594 98.7644Z" fill="#FBBC05"/>
</g>
<mask id="mask1_603_6843" style="mask-type:luminance" maskUnits="userSpaceOnUse" x="47" y="49" width="61" height="63">
<path d="M107.085 74.9938H78.4191V86.8795H94.9192C93.381 94.4304 86.9488 98.7651 78.4191 98.7651C68.3513 98.7651 60.2411 90.6549 60.2411 80.5871C60.2411 70.5192 68.3513 62.409 78.4191 62.409C82.7539 62.409 86.6691 63.9472 89.7454 66.4641L98.6946 57.5149C93.2412 52.7607 86.2497 49.8242 78.4191 49.8242C61.3597 49.8242 47.6562 63.5277 47.6562 80.5871C47.6562 97.6465 61.3597 111.35 78.4191 111.35C93.8005 111.35 107.784 100.163 107.784 80.5871C107.784 78.7693 107.504 76.8116 107.085 74.9938Z" fill="white"/>
</mask>
<g mask="url(#mask1_603_6843)">
<path d="M44.8594 62.4088L68.6307 80.5868L78.4189 72.0571L111.978 66.6037V47.0273H44.8594V62.4088Z" fill="#EA4335"/>
</g>
<mask id="mask2_603_6843" style="mask-type:luminance" maskUnits="userSpaceOnUse" x="47" y="49" width="61" height="63">
<path d="M107.085 74.9938H78.4191V86.8795H94.9192C93.381 94.4304 86.9488 98.7651 78.4191 98.7651C68.3513 98.7651 60.2411 90.6549 60.2411 80.5871C60.2411 70.5192 68.3513 62.409 78.4191 62.409C82.7539 62.409 86.6691 63.9472 89.7454 66.4641L98.6946 57.5149C93.2412 52.7607 86.2497 49.8242 78.4191 49.8242C61.3597 49.8242 47.6562 63.5277 47.6562 80.5871C47.6562 97.6465 61.3597 111.35 78.4191 111.35C93.8005 111.35 107.784 100.163 107.784 80.5871C107.784 78.7693 107.504 76.8116 107.085 74.9938Z" fill="white"/>
</mask>
<g mask="url(#mask2_603_6843)">
<path d="M44.8594 98.7649L86.8087 66.6037L97.8554 68.002L111.978 47.0273V114.146H44.8594V98.7649Z" fill="#34A853"/>
</g>
<mask id="mask3_603_6843" style="mask-type:luminance" maskUnits="userSpaceOnUse" x="47" y="49" width="61" height="63">
<path d="M107.085 74.9938H78.4191V86.8795H94.9192C93.381 94.4304 86.9488 98.7651 78.4191 98.7651C68.3513 98.7651 60.2411 90.6549 60.2411 80.5871C60.2411 70.5192 68.3513 62.409 78.4191 62.409C82.7539 62.409 86.6691 63.9472 89.7454 66.4641L98.6946 57.5149C93.2412 52.7607 86.2497 49.8242 78.4191 49.8242C61.3597 49.8242 47.6562 63.5277 47.6562 80.5871C47.6562 97.6465 61.3597 111.35 78.4191 111.35C93.8005 111.35 107.784 100.163 107.784 80.5871C107.784 78.7693 107.504 76.8116 107.085 74.9938Z" fill="white"/>
</mask>
<g mask="url(#mask3_603_6843)">
<path d="M111.98 114.146L68.6323 80.5863L63.0391 76.3913L111.98 62.4082V114.146Z" fill="#4285F4"/>
</g>
</svg>
