<svg width="48" height="48" viewBox="0 0 48 48" fill="none" xmlns="http://www.w3.org/2000/svg">
<rect width="48" height="48" rx="4" fill="#EDEFF5"/>
<g clip-path="url(#clip0_216_1087)">
<path d="M17.3189 26.5034L16.4835 29.6221L13.4301 29.6867C12.5176 27.9942 12 26.0577 12 23.9999C12 22.01 12.4839 20.1335 13.3417 18.4812H13.3424L16.0608 18.9796L17.2516 21.6816C17.0024 22.4082 16.8665 23.1882 16.8665 23.9999C16.8666 24.8808 17.0262 25.7247 17.3189 26.5034Z" fill="#FBBB00"/>
<path d="M35.7902 21.7583C35.928 22.4842 35.9999 23.2339 35.9999 24.0001C35.9999 24.8592 35.9095 25.6972 35.7375 26.5056C35.1533 29.2563 33.6269 31.6583 31.5124 33.3581L31.5118 33.3574L28.0878 33.1827L27.6032 30.1576C29.0063 29.3348 30.1028 28.0471 30.6804 26.5056H24.2637V21.7583H30.774H35.7902Z" fill="#518EF8"/>
<path d="M31.5114 33.3572L31.5121 33.3579C29.4556 35.0109 26.8433 35.9999 23.9996 35.9999C19.4297 35.9999 15.4565 33.4456 13.4297 29.6867L17.3185 26.5034C18.3319 29.208 20.9409 31.1333 23.9996 31.1333C25.3143 31.1333 26.546 30.7779 27.6029 30.1575L31.5114 33.3572Z" fill="#05CD99"/>
<path d="M31.6596 14.7626L27.7721 17.9452C26.6783 17.2615 25.3853 16.8666 24 16.8666C20.8721 16.8666 18.2143 18.8802 17.2517 21.6817L13.3425 18.4813H13.3418C15.339 14.6308 19.3622 12 24 12C26.9117 12 29.5814 13.0372 31.6596 14.7626Z" fill="#F14336"/>
</g>
<defs>
<clipPath id="clip0_216_1087">
<rect width="24" height="24" fill="white" transform="translate(12 12)"/>
</clipPath>
</defs>
</svg>
