<svg width="21" height="19" viewBox="0 0 21 19" fill="none" xmlns="http://www.w3.org/2000/svg">
<path d="M20.3886 2.62516C20.3873 2.62516 20.386 2.625 20.3848 2.625H14.8066V2.00977C14.8066 0.992065 13.9786 0.164062 12.9609 0.164062H8.03906C7.02136 0.164062 6.19336 0.992065 6.19336 2.00977V2.625H0.615234C0.27269 2.625 0 2.9057 0 3.24023V16.7754C0 17.7931 0.828003 18.6211 1.8457 18.6211H19.1543C20.172 18.6211 21 17.7931 21 16.7754V3.25321C21 3.25241 21 3.25161 21 3.25081C20.9764 2.84674 20.728 2.6274 20.3886 2.62516ZM7.42383 2.00977C7.42383 1.67059 7.69988 1.39453 8.03906 1.39453H12.9609C13.3001 1.39453 13.5762 1.67059 13.5762 2.00977V2.625H7.42383V2.00977ZM19.5311 3.85547L17.6205 9.58708C17.5367 9.83878 17.3022 10.0078 17.037 10.0078H13.5762V9.39258C13.5762 9.05276 13.3008 8.77734 12.9609 8.77734H8.03906C7.69924 8.77734 7.42383 9.05276 7.42383 9.39258V10.0078H3.96297C3.69781 10.0078 3.46326 9.83878 3.37946 9.58708L1.46887 3.85547H19.5311ZM12.3457 10.0078V11.2383H8.6543V10.0078H12.3457ZM19.7695 16.7754C19.7695 17.1146 19.4935 17.3906 19.1543 17.3906H1.8457C1.50652 17.3906 1.23047 17.1146 1.23047 16.7754V7.03146L2.21212 9.97625C2.46366 10.7312 3.16734 11.2383 3.96297 11.2383H7.42383V11.8535C7.42383 12.1933 7.69924 12.4688 8.03906 12.4688H12.9609C13.3008 12.4688 13.5762 12.1933 13.5762 11.8535V11.2383H17.037C17.8327 11.2383 18.5363 10.7312 18.7879 9.97625L19.7695 7.03146V16.7754Z" fill="white"/>
</svg>
