<svg width="24" height="24" viewBox="0 0 24 24" fill="none" xmlns="http://www.w3.org/2000/svg">
<g clip-path="url(#clip0_1_403)">
<path d="M21.3886 4.73258C21.3873 4.73258 21.386 4.73242 21.3848 4.73242H15.8066V4.11719C15.8066 3.09949 14.9786 2.27148 13.9609 2.27148H9.03906C8.02136 2.27148 7.19336 3.09949 7.19336 4.11719V4.73242H1.61523C1.27269 4.73242 1 5.01312 1 5.34766V18.8828C1 19.9005 1.828 20.7285 2.8457 20.7285H20.1543C21.172 20.7285 22 19.9005 22 18.8828V5.36063C22 5.35983 22 5.35903 22 5.35823C21.9764 4.95416 21.728 4.73483 21.3886 4.73258ZM8.42383 4.11719C8.42383 3.77801 8.69988 3.50195 9.03906 3.50195H13.9609C14.3001 3.50195 14.5762 3.77801 14.5762 4.11719V4.73242H8.42383V4.11719ZM20.5311 5.96289L18.6205 11.6945C18.5367 11.9462 18.3022 12.1152 18.037 12.1152H14.5762V11.5C14.5762 11.1602 14.3008 10.8848 13.9609 10.8848H9.03906C8.69924 10.8848 8.42383 11.1602 8.42383 11.5V12.1152H4.96297C4.69781 12.1152 4.46326 11.9462 4.37946 11.6945L2.46887 5.96289H20.5311ZM13.3457 12.1152V13.3457H9.6543V12.1152H13.3457ZM20.7695 18.8828C20.7695 19.222 20.4935 19.498 20.1543 19.498H2.8457C2.50652 19.498 2.23047 19.222 2.23047 18.8828V9.13888L3.21212 12.0837C3.46366 12.8386 4.16734 13.3457 4.96297 13.3457H8.42383V13.9609C8.42383 14.3008 8.69924 14.5762 9.03906 14.5762H13.9609C14.3008 14.5762 14.5762 14.3008 14.5762 13.9609V13.3457H18.037C18.8327 13.3457 19.5363 12.8386 19.7879 12.0837L20.7695 9.13888V18.8828Z" fill="#A5B4CB"/>
</g>
<defs>
<clipPath id="clip0_1_403">
<rect width="21" height="21" fill="white" transform="translate(1 1)"/>
</clipPath>
</defs>
</svg>
