<svg width="20" height="20" viewBox="0 0 20 20" fill="none" xmlns="http://www.w3.org/2000/svg">
<path d="M1 9.89062C1 4.92006 5.02944 0.890625 10 0.890625C14.9706 0.890625 19 4.92006 19 9.89062C19 14.8612 14.9706 18.8906 10 18.8906H1V9.89062Z" stroke="white" stroke-width="1.5" stroke-linejoin="round"/>
<path d="M6 10.8906C6.55228 10.8906 7 10.4429 7 9.89062C7 9.33834 6.55228 8.89062 6 8.89062C5.44772 8.89062 5 9.33834 5 9.89062C5 10.4429 5.44772 10.8906 6 10.8906Z" fill="white"/>
<path d="M10 10.8906C10.5523 10.8906 11 10.4429 11 9.89062C11 9.33834 10.5523 8.89062 10 8.89062C9.44772 8.89062 9 9.33834 9 9.89062C9 10.4429 9.44772 10.8906 10 10.8906Z" fill="white"/>
<path d="M14 10.8906C14.5523 10.8906 15 10.4429 15 9.89062C15 9.33834 14.5523 8.89062 14 8.89062C13.4477 8.89062 13 9.33834 13 9.89062C13 10.4429 13.4477 10.8906 14 10.8906Z" fill="white"/>
</svg>
