<svg width="250" height="83" viewBox="0 0 250 83" fill="none" xmlns="http://www.w3.org/2000/svg">
<rect x="53.2314" y="4.77026" width="196" height="73" fill="#214155"/>
<path d="M6.27354 42.482C7.73863 32.697 8.47118 27.8045 10.2193 23.7861C14.5651 13.7965 23.5849 5.8949 34.0594 2.90137C38.2729 1.69719 43.2192 1.61478 53.1119 1.44997V1.44997C63.0046 1.28516 67.951 1.20275 71.8241 2.27221C81.4523 4.93083 88.145 12.5707 89.5136 22.465C90.0642 26.4451 89.3316 31.3376 87.8665 41.1226L87.6114 42.8265C87.4067 44.1934 87.3044 44.8769 87.1098 45.5369C86.7353 46.807 86.1054 48.03 85.2596 49.1287C84.82 49.6997 84.297 50.2302 83.2509 51.2912L58.072 76.8303C56.3592 78.5677 55.5027 79.4364 54.5368 80.0929C53.3908 80.8718 52.1299 81.4348 50.8328 81.7467C49.7394 82.0095 48.608 82.0284 46.3451 82.0661L41.0281 82.1547C31.1354 82.3195 26.1891 82.4019 22.316 81.3324C12.6878 78.6738 5.99502 71.0339 4.62643 61.1396C4.0759 57.1595 4.80845 52.267 6.27354 42.482V42.482Z" fill="#5EA9FE"/>
<path fill-rule="evenodd" clip-rule="evenodd" d="M85.1934 49.2771C84.776 49.7955 84.257 50.3219 83.3028 51.2898L83.3028 51.2898L58.1239 76.8289C56.6711 78.3025 55.8345 79.1511 55.0245 79.7754C56.4685 77.2482 56.1268 74.5305 55.7576 71.5931C55.1757 66.9645 54.5253 61.7902 60.6834 55.9547C66.031 50.8873 71.1315 51.0501 75.7405 51.1972C79.2034 51.3077 82.3889 51.4094 85.1934 49.2771Z" fill="white"/>
<path d="M41.5283 33.8543C42.9537 31.2983 43.6658 30.0203 44.7312 30.0203C45.7966 30.0203 46.5087 31.2983 47.9341 33.8543L48.3031 34.5158C48.7081 35.2425 48.9106 35.6059 49.2256 35.8455C49.5406 36.0851 49.9343 36.174 50.7218 36.3518L51.4373 36.5138C54.2048 37.1404 55.5875 37.4531 55.9171 38.5118C56.2456 39.5693 55.3028 40.6729 53.4162 42.879L52.928 43.4494C52.3925 44.076 52.1236 44.3899 52.0032 44.7769C51.8828 45.165 51.9233 45.5835 52.0043 46.4194L52.0786 47.181C52.3632 50.1251 52.5061 51.5966 51.6443 52.2503C50.7826 52.905 49.4866 52.3076 46.8968 51.1151L46.2252 50.8069C45.4895 50.4671 45.1216 50.2984 44.7312 50.2984C44.3408 50.2984 43.973 50.4671 43.2361 50.8069L42.5667 51.1151C39.9758 52.3076 38.6798 52.9039 37.8192 52.2514C36.9563 51.5966 37.0992 50.1251 37.3838 47.181L37.4581 46.4205C37.5391 45.5835 37.5796 45.165 37.4581 44.778C37.3388 44.3899 37.07 44.076 36.5345 43.4505L36.0462 42.879C34.1596 40.674 33.2168 39.5704 33.5453 38.5118C33.875 37.4531 35.2587 37.1393 38.0262 36.5138L38.7417 36.3518C39.5281 36.174 39.9207 36.0851 40.2368 35.8455C40.5518 35.6059 40.7543 35.2425 41.1593 34.5158L41.5283 33.8543Z" fill="white"/>
<path d="M119.559 35.5078C123.575 35.5078 126.102 38.2857 126.102 42.7284C126.102 47.1711 123.575 49.9393 119.559 49.9393C115.532 49.9393 113.015 47.1711 113.015 42.7284C113.015 38.2857 115.532 35.5078 119.559 35.5078ZM119.559 37.4146C116.906 37.4146 115.232 39.4665 115.232 42.7284C115.232 45.9806 116.906 48.0325 119.559 48.0325C122.211 48.0325 123.875 45.9806 123.875 42.7284C123.875 39.4665 122.211 37.4146 119.559 37.4146ZM133.777 49.707H128.173V35.7401H133.748C136.226 35.7401 137.852 37.1145 137.852 39.2246C137.852 40.7055 136.758 42.0315 135.364 42.2638V42.3412C137.262 42.5542 138.539 43.8996 138.539 45.758C138.539 48.2165 136.749 49.707 133.777 49.707ZM130.341 37.5114V41.6831H132.77C134.648 41.6831 135.684 40.9087 135.684 39.5246C135.684 38.2276 134.793 37.5114 133.225 37.5114H130.341ZM130.341 47.9358H133.332C135.287 47.9358 136.323 47.1324 136.323 45.6225C136.323 44.1125 135.258 43.3382 133.206 43.3382H130.341V47.9358ZM139.788 45.816H141.927C142.082 47.2001 143.427 48.11 145.266 48.11C147.028 48.11 148.296 47.2001 148.296 45.9515C148.296 44.8675 147.531 44.219 145.721 43.7737L143.911 43.3382C141.346 42.7187 140.156 41.5185 140.156 39.573C140.156 37.1629 142.256 35.5078 145.237 35.5078C148.189 35.5078 150.212 37.1629 150.28 39.573H148.17C148.044 38.1792 146.892 37.3371 145.208 37.3371C143.524 37.3371 142.372 38.1889 142.372 39.4278C142.372 40.4151 143.108 40.9958 144.908 41.4411L146.447 41.8186C149.312 42.4961 150.503 43.6479 150.503 45.6902C150.503 48.3036 148.422 49.9393 145.111 49.9393C142.014 49.9393 139.923 48.3423 139.788 45.816ZM161.314 47.8293V49.707H152.448V35.7401H161.314V37.6082H154.616V41.6927H160.956V43.4931H154.616V47.8293H161.314ZM165.708 37.5598V42.5832H168.748C170.422 42.5832 171.38 41.6637 171.38 40.0667C171.38 38.5083 170.364 37.5598 168.69 37.5598H165.708ZM165.708 44.3351V49.707H163.54V35.7401H168.951C171.826 35.7401 173.616 37.4049 173.616 40.0086C173.616 41.896 172.61 43.4253 170.906 43.9964L174.032 49.707H171.535L168.69 44.3351H165.708ZM181.979 49.707H179.608L174.623 35.7401H176.975L180.779 47.2679H180.837L184.65 35.7401H186.964L181.979 49.707ZM197.378 47.8293V49.707H188.512V35.7401H197.378V37.6082H190.681V41.6927H197.02V43.4931H190.681V47.8293H197.378Z" fill="white"/>
</svg>
