<svg width="249" height="83" viewBox="0 0 249 83" fill="none" xmlns="http://www.w3.org/2000/svg">
<rect x="53" y="4" width="196" height="73" fill="#214155"/>
<path d="M6.04209 41.7117C7.50719 31.9267 8.23973 27.0342 9.98787 23.0158C14.3336 13.0263 23.3534 5.12464 33.8279 2.13111C38.0414 0.926924 42.9878 0.844518 52.8805 0.679706C62.7732 0.514893 67.7195 0.432487 71.5926 1.50195C81.2208 4.16056 87.9136 11.8004 89.2822 21.6948C89.8327 25.6749 89.1002 30.5674 87.6351 40.3524L87.38 42.0563C87.1753 43.4232 87.073 44.1066 86.8784 44.7667C86.5039 46.0368 85.8739 47.2597 85.0281 48.3585C84.5886 48.9294 84.0655 49.46 83.0195 50.521L57.8406 76.0601C56.1277 77.7974 55.2713 78.6661 54.3054 79.3226C53.1594 80.1016 51.8985 80.6645 50.6013 80.9764C49.508 81.2393 48.3766 81.2581 46.1137 81.2958L40.7967 81.3844C30.904 81.5492 25.9576 81.6316 22.0846 80.5622C12.4564 77.9035 5.76358 70.2637 4.39499 60.3693C3.84446 56.3892 4.577 51.4967 6.04209 41.7117Z" fill="#5EA9FE"/>
<path fill-rule="evenodd" clip-rule="evenodd" d="M84.9615 48.5067C84.5441 49.0251 84.0251 49.5516 83.0709 50.5194L83.0708 50.5194L57.8919 76.0585C56.4392 77.5321 55.6025 78.3807 54.7926 79.005C56.2365 76.4778 55.8949 73.7601 55.5256 70.8227C54.9438 66.1941 54.2933 61.0198 60.4515 55.1843C65.7991 50.1169 70.8995 50.2797 75.5085 50.4268C78.9715 50.5373 82.157 50.639 84.9615 48.5067Z" fill="white"/>
<path d="M41.2974 33.084C42.7228 30.528 43.4349 29.25 44.5003 29.25C45.5656 29.25 46.2778 30.528 47.7031 33.084L48.0721 33.7455C48.4771 34.4722 48.6796 34.8356 48.9946 35.0753C49.3096 35.3149 49.7034 35.4037 50.4909 35.5815L51.2064 35.7435C53.9739 36.3701 55.3565 36.6829 55.6861 37.7415C56.0146 38.799 55.0719 39.9026 53.1853 42.1088L52.697 42.6791C52.1615 43.3057 51.8926 43.6196 51.7723 44.0066C51.6519 44.3947 51.6924 44.8132 51.7734 45.6491L51.8476 46.4107C52.1323 49.3549 52.2751 50.8264 51.4134 51.48C50.5516 52.1348 49.2556 51.5374 46.6659 50.3449L45.9943 50.0366C45.2585 49.6969 44.8906 49.5281 44.5003 49.5281C44.1099 49.5281 43.742 49.6969 43.0051 50.0366L42.3358 50.3449C39.7449 51.5374 38.4489 52.1336 37.5883 51.4811C36.7254 50.8264 36.8683 49.3549 37.1529 46.4107L37.2271 45.6502C37.3081 44.8132 37.3486 44.3947 37.2271 44.0077C37.1079 43.6196 36.839 43.3057 36.3035 42.6803L35.8153 42.1088C33.9286 39.9038 32.9859 38.8001 33.3144 37.7415C33.644 36.6829 35.0278 36.369 37.7953 35.7435L38.5108 35.5815C39.2971 35.4037 39.6898 35.3149 40.0059 35.0753C40.3209 34.8356 40.5234 34.4722 40.9284 33.7455L41.2974 33.084Z" fill="white"/>
<path d="M119.327 34.7375C123.344 34.7375 125.87 37.5154 125.87 41.9581C125.87 46.4008 123.344 49.1691 119.327 49.1691C115.301 49.1691 112.784 46.4008 112.784 41.9581C112.784 37.5154 115.301 34.7375 119.327 34.7375ZM119.327 36.6443C116.675 36.6443 115.001 38.6963 115.001 41.9581C115.001 45.2103 116.675 47.2623 119.327 47.2623C121.979 47.2623 123.644 45.2103 123.644 41.9581C123.644 38.6963 121.979 36.6443 119.327 36.6443ZM133.546 48.9368H127.941V34.9698H133.517C135.994 34.9698 137.621 36.3443 137.621 38.4543C137.621 39.9352 136.527 41.2612 135.133 41.4935V41.571C137.03 41.7839 138.308 43.1293 138.308 44.9877C138.308 47.4462 136.517 48.9368 133.546 48.9368ZM130.11 36.7411V40.9128H132.539C134.417 40.9128 135.452 40.1385 135.452 38.7544C135.452 37.4574 134.562 36.7411 132.994 36.7411H130.11ZM130.11 47.1655H133.1C135.056 47.1655 136.091 46.3621 136.091 44.8522C136.091 43.3423 135.027 42.5679 132.975 42.5679H130.11V47.1655ZM139.556 45.0458H141.695C141.85 46.4299 143.196 47.3397 145.035 47.3397C146.796 47.3397 148.064 46.4299 148.064 45.1813C148.064 44.0972 147.3 43.4487 145.49 43.0035L143.68 42.5679C141.115 41.9485 139.924 40.7483 139.924 38.8028C139.924 36.3927 142.025 34.7375 145.006 34.7375C147.958 34.7375 149.981 36.3927 150.049 38.8028H147.938C147.813 37.409 146.661 36.5669 144.977 36.5669C143.293 36.5669 142.141 37.4186 142.141 38.6576C142.141 39.6448 142.876 40.2256 144.677 40.6708L146.216 41.0483C149.081 41.7258 150.271 42.8777 150.271 44.9199C150.271 47.5333 148.19 49.1691 144.88 49.1691C141.783 49.1691 139.692 47.572 139.556 45.0458ZM161.083 47.059V48.9368H152.217V34.9698H161.083V36.8379H154.385V40.9225H160.725V42.7228H154.385V47.059H161.083ZM165.477 36.7895V41.813H168.516C170.191 41.813 171.149 40.8934 171.149 39.2964C171.149 37.7381 170.133 36.7895 168.458 36.7895H165.477ZM165.477 43.5649V48.9368H163.309V34.9698H168.719C171.594 34.9698 173.385 36.6346 173.385 39.2383C173.385 41.1257 172.378 42.655 170.675 43.2261L173.801 48.9368H171.304L168.458 43.5649H165.477ZM181.748 48.9368H179.376L174.391 34.9698H176.743L180.547 46.4976H180.605L184.419 34.9698H186.732L181.748 48.9368ZM197.147 47.059V48.9368H188.281V34.9698H197.147V36.8379H190.449V40.9225H196.789V42.7228H190.449V47.059H197.147ZM199.373 34.9698H204.3C208.452 34.9698 210.911 37.5251 210.911 41.9291C210.911 46.3428 208.462 48.9368 204.3 48.9368H199.373V34.9698ZM201.541 36.8379V47.059H204.097C207.058 47.059 208.694 45.249 208.694 41.9485C208.694 38.6576 207.049 36.8379 204.097 36.8379H201.541Z" fill="white"/>
</svg>
