<svg width="24" height="25" viewBox="0 0 24 25" fill="none" xmlns="http://www.w3.org/2000/svg">
<path d="M10.25 7.39062C10.25 5.31956 8.57107 3.64062 6.5 3.64062C4.42893 3.64062 2.75 5.31956 2.75 7.39062C2.75 9.46169 4.42893 11.1406 6.5 11.1406C8.57107 11.1406 10.25 9.46169 10.25 7.39062Z" stroke="#F4F7FE" stroke-width="1.5"/>
<path d="M21.25 7.39062C21.25 5.31956 19.5711 3.64062 17.5 3.64062C15.4289 3.64062 13.75 5.31956 13.75 7.39062C13.75 9.46169 15.4289 11.1406 17.5 11.1406C19.5711 11.1406 21.25 9.46169 21.25 7.39062Z" stroke="#F4F7FE" stroke-width="1.5"/>
<path d="M21.25 18.3906C21.25 16.3196 19.5711 14.6406 17.5 14.6406C15.4289 14.6406 13.75 16.3196 13.75 18.3906C13.75 20.4617 15.4289 22.1406 17.5 22.1406C19.5711 22.1406 21.25 20.4617 21.25 18.3906Z" stroke="#F4F7FE" stroke-width="1.5"/>
<path d="M10.25 18.3906C10.25 16.3196 8.57107 14.6406 6.5 14.6406C4.42893 14.6406 2.75 16.3196 2.75 18.3906C2.75 20.4617 4.42893 22.1406 6.5 22.1406C8.57107 22.1406 10.25 20.4617 10.25 18.3906Z" stroke="#F4F7FE" stroke-width="1.5"/>
</svg>
