<svg width="72" height="72" viewBox="0 0 72 72" fill="none" xmlns="http://www.w3.org/2000/svg">
<g id="Group 1171276684">
<circle id="Ellipse 2949" cx="36" cy="36" r="36" fill="#F3F7FF"/>
<path id="Solid" fill-rule="evenodd" clip-rule="evenodd" d="M28 31.1C28 26.6265 31.5817 23 36 23C40.4183 23 44 26.6265 44 31.1V32.6529C44.3768 32.7365 44.7385 32.8583 45.088 33.0386C46.0915 33.5563 46.9074 34.3824 47.4187 35.3985C47.7484 36.0537 47.8798 36.7512 47.9411 37.51C48 38.2406 48 39.1375 48 40.2242V42.2258C48 43.3125 48 44.2094 47.9411 44.94C47.8798 45.6988 47.7484 46.3963 47.4187 47.0516C46.9074 48.0676 46.0915 48.8937 45.088 49.4114C44.4408 49.7453 43.7519 49.8783 43.0024 49.9403C42.2808 50 41.395 50 40.3217 50H31.6783C30.605 50 29.7192 50 28.9976 49.9403C28.2481 49.8783 27.5592 49.7453 26.9121 49.4114C25.9085 48.8937 25.0926 48.0676 24.5813 47.0516C24.2516 46.3963 24.1202 45.6988 24.0589 44.94C24 44.2094 24 43.3125 24 42.2258V40.2242C24 39.1375 24 38.2406 24.0589 37.51C24.1202 36.7512 24.2516 36.0537 24.5813 35.3985C25.0926 34.3824 25.9085 33.5563 26.9121 33.0386C27.2615 32.8583 27.6232 32.7365 28 32.6529V31.1ZM41.3333 31.1V32.4522H30.6667V31.1C30.6667 28.1177 33.0545 25.7 36 25.7C38.9455 25.7 41.3333 28.1177 41.3333 31.1ZM37.3333 39.875C37.3333 39.1294 36.7364 38.525 36 38.525C35.2636 38.525 34.6667 39.1294 34.6667 39.875V42.575C34.6667 43.3206 35.2636 43.925 36 43.925C36.7364 43.925 37.3333 43.3206 37.3333 42.575V39.875Z" fill="#0095FF"/>
</g>
</svg>
