<svg width="16" height="16" viewBox="0 0 16 16" fill="none" xmlns="http://www.w3.org/2000/svg">
<g clip-path="url(#clip0_1807_774)">
<path d="M12.1581 2.90057C11.9853 2.73612 11.7704 2.62271 11.5372 2.57291C11.3039 2.5231 11.0615 2.53886 10.8366 2.61842C10.7731 2.63967 10.7166 2.67808 10.6735 2.72941C10.6303 2.78075 10.6022 2.843 10.5923 2.9093L10.4905 3.60892C10.3361 4.66563 9.4319 5.45041 8.36398 5.45467H6.90948C6.82836 5.45469 6.74959 5.48182 6.68567 5.53176C6.62176 5.58171 6.57638 5.65158 6.55675 5.73029L5.46588 10.0938C5.45252 10.1473 5.45154 10.2033 5.46301 10.2573C5.47449 10.3113 5.49812 10.362 5.53212 10.4056C5.56611 10.4491 5.60958 10.4843 5.65921 10.5085C5.70884 10.5328 5.76334 10.5454 5.81857 10.5454H7.63668C7.71779 10.5454 7.79657 10.5182 7.86048 10.4683C7.92439 10.4183 7.96977 10.3485 7.9894 10.2698L8.64757 7.63641H10.0657C11.1543 7.64002 12.104 6.89803 12.3638 5.84084L12.6321 4.76524C12.7249 4.44026 12.7299 4.0965 12.6467 3.76895C12.5634 3.4414 12.3948 3.14177 12.1581 2.90057Z" fill="#03A9F4"/>
<path d="M0.363532 14.9088C0.16271 14.9088 -6.81578e-05 14.746 2.14097e-08 14.5451C2.14097e-08 14.5155 0.00364761 14.486 0.0108064 14.4573L0.37444 13.0101V12.9948L0.738074 11.5483C0.757702 11.4696 0.803082 11.3997 0.866996 11.3498C0.93091 11.2998 1.00969 11.2727 1.0908 11.2727H2.01586C2.51793 11.2726 2.92499 11.6795 2.92513 12.1815C2.92513 12.2559 2.91603 12.33 2.89803 12.4021L2.80711 12.7657C2.70597 13.1705 2.34223 13.4545 1.92497 13.4544H1.01151L0.716973 14.6333C0.697297 14.7121 0.651804 14.7821 0.587746 14.832C0.523689 14.8819 0.444756 14.909 0.363532 14.9088ZM1.19331 12.7271H1.9249C1.96544 12.727 2.00478 12.7133 2.03667 12.6883C2.06856 12.6633 2.09117 12.6283 2.10091 12.5889L2.19183 12.2253C2.19872 12.1985 2.19938 12.1705 2.19375 12.1434C2.18812 12.1163 2.17636 12.0908 2.15936 12.069C2.14237 12.0472 2.12059 12.0295 2.09571 12.0174C2.07082 12.0053 2.04349 11.9991 2.01582 11.9992H1.37511L1.19331 12.7271ZM4.2521 14.9088H3.73431C3.17763 14.909 2.72625 14.4578 2.72611 13.9011C2.72609 13.8187 2.73619 13.7365 2.75618 13.6565L2.80418 13.4631C2.9118 13.0289 3.3023 12.7246 3.74959 12.7264H4.26737C4.82406 12.7273 5.27455 13.1794 5.2736 13.7361C5.27346 13.8181 5.26331 13.8998 5.24336 13.9794L5.19536 14.1728C5.08764 14.606 4.69837 14.9097 4.2521 14.9088ZM3.46231 13.8332C3.45205 13.8746 3.45132 13.9177 3.46018 13.9594C3.46905 14.001 3.48728 14.0401 3.51349 14.0737C3.53969 14.1072 3.5732 14.1344 3.61146 14.1531C3.64971 14.1718 3.69173 14.1815 3.73431 14.1816H4.2521C4.30659 14.1818 4.35955 14.1636 4.40253 14.1302C4.44551 14.0967 4.47602 14.0497 4.48919 13.9969L4.53719 13.8034C4.54746 13.7621 4.54819 13.719 4.53932 13.6773C4.53045 13.6357 4.51223 13.5966 4.48602 13.563C4.45981 13.5294 4.42631 13.5023 4.38805 13.4836C4.34979 13.4649 4.30778 13.4551 4.26519 13.4551H3.7474C3.69292 13.4549 3.63996 13.473 3.59698 13.5065C3.554 13.54 3.52348 13.5869 3.51031 13.6398L3.46231 13.8332Z" fill="#283593"/>
<path d="M4.72681 14.9088C4.67158 14.9088 4.61707 14.8962 4.56744 14.872C4.5178 14.8478 4.47433 14.8126 4.44033 14.769C4.40633 14.7255 4.3827 14.6748 4.37122 14.6208C4.35974 14.5667 4.36072 14.5108 4.37409 14.4572L4.73772 13.0027C4.78633 12.8077 4.98378 12.689 5.17881 12.7376C5.3738 12.7862 5.4925 12.9837 5.44389 13.1787L5.08025 14.6332C5.0606 14.712 5.01511 14.782 4.95105 14.832C4.88699 14.8819 4.80805 14.909 4.72681 14.9088Z" fill="#283593"/>
<path d="M9.09009 14.9088C9.03486 14.9088 8.98036 14.8962 8.93072 14.872C8.88108 14.8478 8.83761 14.8126 8.80361 14.769C8.76961 14.7255 8.74598 14.6748 8.7345 14.6208C8.72302 14.5668 8.724 14.5108 8.73737 14.4572L9.101 13.01V12.9947L9.46464 11.5483C9.48426 11.4696 9.52964 11.3997 9.59356 11.3497C9.65747 11.2998 9.73625 11.2727 9.81736 11.2726H10.7424C11.2445 11.2725 11.6516 11.6794 11.6517 12.1815C11.6517 12.2559 11.6426 12.3299 11.6246 12.4021L11.5337 12.7657C11.4325 13.1705 11.0688 13.4545 10.6515 13.4544H9.7381L9.44357 14.6333C9.42389 14.7121 9.37839 14.782 9.31433 14.832C9.25026 14.8819 9.17132 14.909 9.09009 14.9088ZM9.91987 12.7271H10.6522C10.6928 12.727 10.7321 12.7133 10.764 12.6883C10.7959 12.6633 10.8185 12.6283 10.8282 12.5889L10.9191 12.2253C10.926 12.1985 10.9267 12.1705 10.921 12.1434C10.9154 12.1163 10.9037 12.0909 10.8867 12.069C10.8697 12.0472 10.8479 12.0295 10.823 12.0174C10.7981 12.0053 10.7708 11.9991 10.7431 11.9992H10.1017L9.91987 12.7271ZM12.9787 14.9088H12.4609C11.9042 14.909 11.4528 14.4578 11.4527 13.9011C11.4527 13.8187 11.4628 13.7365 11.4827 13.6565L11.5307 13.4631C11.6384 13.0289 12.0289 12.7246 12.4761 12.7264H12.9939C13.5506 12.7262 14.002 13.1774 14.0021 13.7341C14.0022 13.8165 13.9921 13.8987 13.9721 13.9787L13.9241 14.1721C13.8164 14.6063 13.426 14.9106 12.9787 14.9088ZM12.1889 13.8333C12.1786 13.8746 12.1779 13.9177 12.1867 13.9594C12.1956 14.001 12.2138 14.0401 12.24 14.0737C12.2663 14.1072 12.2998 14.1344 12.338 14.1531C12.3763 14.1718 12.4183 14.1816 12.4609 14.1816H12.9787C13.0331 14.1818 13.0861 14.1637 13.1291 14.1302C13.1721 14.0967 13.2026 14.0498 13.2158 13.9969L13.2638 13.8034C13.274 13.7621 13.2747 13.719 13.2659 13.6773C13.257 13.6357 13.2388 13.5966 13.2126 13.563C13.1864 13.5294 13.1529 13.5023 13.1146 13.4836C13.0764 13.4649 13.0343 13.4551 12.9918 13.4551H12.474C12.4195 13.4549 12.3665 13.473 12.3235 13.5065C12.2806 13.54 12.25 13.5869 12.2369 13.6398L12.1889 13.8333Z" fill="#03A9F4"/>
<path d="M13.4534 14.9088C13.3981 14.9088 13.3436 14.8962 13.294 14.872C13.2444 14.8478 13.2009 14.8126 13.1669 14.769C13.1329 14.7255 13.1093 14.6748 13.0978 14.6208C13.0863 14.5667 13.0873 14.5108 13.1006 14.4572L13.4643 13.0027C13.5129 12.8077 13.7103 12.689 13.9054 12.7376C14.1004 12.7862 14.2191 12.9837 14.1704 13.1787L13.8068 14.6332C13.7872 14.712 13.7417 14.782 13.6776 14.832C13.6136 14.8819 13.5346 14.909 13.4534 14.9088Z" fill="#03A9F4"/>
<path d="M6.90932 14.5452C6.84944 14.5452 6.79049 14.5304 6.73771 14.5021C6.68493 14.4738 6.63996 14.4329 6.60678 14.3831L5.87954 13.2922C5.76807 13.1251 5.81317 12.8993 5.98028 12.7878C6.14738 12.6764 6.37316 12.7215 6.48463 12.8886L7.21187 13.9794C7.32351 14.1464 7.27872 14.3722 7.11181 14.4839C7.05188 14.5239 6.9814 14.5453 6.90932 14.5452Z" fill="#283593"/>
<path d="M6.18186 15.6361C5.98103 15.636 5.81829 15.4732 5.81836 15.2723C5.81839 15.1873 5.8482 15.105 5.90259 15.0397L7.7207 12.858C7.84942 12.7038 8.07881 12.6831 8.23303 12.8118C8.38725 12.9405 8.40794 13.1699 8.27922 13.3241L6.46112 15.5059C6.42695 15.5467 6.38423 15.5795 6.33597 15.602C6.28771 15.6245 6.2351 15.6362 6.18186 15.6361Z" fill="#283593"/>
<path d="M14.9085 14.9088C14.8532 14.9088 14.7987 14.8962 14.7491 14.872C14.6994 14.8478 14.656 14.8126 14.622 14.769C14.588 14.7255 14.5643 14.6748 14.5529 14.6208C14.5414 14.5667 14.5424 14.5108 14.5557 14.4572L15.283 11.5482C15.3316 11.3533 15.529 11.2346 15.724 11.2832C15.919 11.3318 16.0377 11.5292 15.9891 11.7243L15.2619 14.6332C15.2422 14.712 15.1968 14.782 15.1327 14.832C15.0686 14.8819 14.9897 14.909 14.9085 14.9088Z" fill="#03A9F4"/>
<path d="M10.9572 0.993009C10.7845 0.795218 10.5715 0.636729 10.3324 0.528219C10.0933 0.419709 9.83369 0.363696 9.57112 0.363954H5.4549C5.36969 0.363952 5.28718 0.393878 5.22178 0.448507C5.15639 0.503137 5.11226 0.579 5.09709 0.662851L3.64259 8.66253C3.60683 8.86014 3.73808 9.04931 3.93569 9.08507C3.95703 9.08892 3.97872 9.09086 4.0004 9.09086H6.18213C6.26324 9.09085 6.34202 9.06371 6.40594 9.01377C6.46985 8.96383 6.51523 8.89395 6.53486 8.81525L7.19374 6.18189H8.36387C9.7942 6.17627 11.0051 5.12471 11.211 3.70927L11.3928 2.4664C11.4299 2.20394 11.4102 1.93659 11.335 1.68241C11.2599 1.42822 11.131 1.19313 10.9572 0.993009Z" fill="#283593"/>
</g>
<defs>
<clipPath id="clip0_1807_774">
<rect width="16" height="16" fill="white"/>
</clipPath>
</defs>
</svg>
