<svg width="41" height="50" viewBox="0 0 41 50" fill="none" xmlns="http://www.w3.org/2000/svg">
<path d="M25.5 0H5.5C4.17392 0 2.90215 0.526784 1.96447 1.46447C1.02678 2.40215 0.5 3.67392 0.5 5V45C0.5 46.3261 1.02678 47.5979 1.96447 48.5355C2.90215 49.4732 4.17392 50 5.5 50H35.5C36.8261 50 38.0979 49.4732 39.0355 48.5355C39.9732 47.5979 40.5 46.3261 40.5 45V15L25.5 0ZM14.245 35.475C13.4725 36.2 12.3325 36.525 11.005 36.525C10.7476 36.5278 10.4903 36.5128 10.235 36.48V40.045H8V30.205C9.00864 30.0545 10.0278 29.986 11.0475 30C12.44 30 13.43 30.265 14.0975 30.7975C14.7325 31.3025 15.1625 32.13 15.1625 33.105C15.16 34.085 14.835 34.9125 14.245 35.475ZM23.7625 38.8625C22.7125 39.735 21.115 40.15 19.1625 40.15C17.9925 40.15 17.165 40.075 16.6025 40V30.2075C17.6115 30.0602 18.6303 29.9909 19.65 30C21.5425 30 22.7725 30.34 23.7325 31.065C24.77 31.835 25.42 33.0625 25.42 34.825C25.42 36.7325 24.7225 38.05 23.7625 38.8625ZM33 31.925H29.17V34.2025H32.75V36.0375H29.17V40.0475H26.905V30.075H33V31.925ZM25.5 17.5H23V5L35.5 17.5H25.5Z" fill="#FF3636"/>
</svg>
