<svg width="21" height="22" viewBox="0 0 21 22" fill="none" xmlns="http://www.w3.org/2000/svg">
<path d="M1.25429 6.65147L2.13429 5.12726C2.65429 4.2266 3.82041 3.90682 4.72974 4.43182C6.29724 5.33682 7.5781 4.5983 7.57502 2.78364C7.57469 1.74422 8.4282 0.885974 9.4762 0.890644L11.4695 0.898274C12.3886 0.886244 13.132 1.63873 13.144 2.55789L13.1443 2.77743C13.1387 4.58709 14.4204 5.32709 15.9935 4.42243L16.1837 4.31289C16.9858 3.86373 18.0091 4.13124 18.4583 4.93327L19.4615 6.65564C19.9896 7.56097 19.6731 8.72922 18.7727 9.24864C17.1996 10.1533 17.2005 11.6318 18.768 12.5368C19.6687 13.0568 19.9885 14.2229 19.4635 15.1322L18.5835 16.6564C18.0635 17.5571 16.8973 17.8769 15.988 17.3519C14.4205 16.4469 13.1396 17.1854 13.1427 19C13.1381 20.0481 12.2896 20.8977 11.2415 20.8931L9.2483 20.8854C8.32913 20.8975 7.58578 20.145 7.57375 19.2258L7.57348 19.0063C7.57906 17.1966 6.29734 16.4566 4.72426 17.3613L4.534 17.4708C3.73197 17.92 2.70862 17.6525 2.25946 16.8504L1.25624 15.1281C0.728153 14.2227 1.04469 13.0545 1.94502 12.535C3.5181 11.6304 3.51724 10.1519 1.94974 9.24694C1.04041 8.72192 0.734293 7.55213 1.25429 6.65147Z" stroke="white" stroke-width="1.5" stroke-miterlimit="10" stroke-linecap="round" stroke-linejoin="round"/>
<path d="M13.6035 10.8906C13.6035 9.09573 12.1484 7.64062 10.3535 7.64062C8.55862 7.64062 7.10352 9.09573 7.10352 10.8906C7.10352 12.6855 8.55862 14.1406 10.3535 14.1406C12.1484 14.1406 13.6035 12.6855 13.6035 10.8906Z" stroke="white" stroke-width="1.5"/>
</svg>
