<svg width="24" height="24" viewBox="0 0 24 24" fill="none" xmlns="http://www.w3.org/2000/svg">
<g clip-path="url(#clip0_1_380)">
<path d="M8.40878 11.7854L9.04215 11.1524C9.13666 11.0554 9.20345 10.9349 9.23556 10.8033C9.26767 10.6718 9.26392 10.534 9.22471 10.4044C9.1855 10.2748 9.11226 10.1581 9.01261 10.0664C8.91297 9.97473 8.79057 9.91143 8.65815 9.88312L3.23531 8.79437C3.11375 8.77106 2.98833 8.77794 2.87004 8.81441C2.75176 8.85087 2.64423 8.9158 2.55688 9.00351C2.46954 9.09121 2.40505 9.19901 2.36908 9.31744C2.3331 9.43588 2.32674 9.56133 2.35055 9.6828L3.43802 15.0991C3.46645 15.2318 3.52994 15.3545 3.62189 15.4544C3.71384 15.5542 3.83089 15.6276 3.96084 15.6669C4.09079 15.7061 4.22889 15.7098 4.36076 15.6776C4.49263 15.6454 4.61344 15.5784 4.71061 15.4836L5.34122 14.8531L12.6515 22.1634C12.8676 22.3776 13.1595 22.4977 13.4638 22.4977C13.768 22.4977 14.0599 22.3776 14.276 22.1634L15.7193 20.7204C15.9346 20.5049 16.0556 20.2128 16.0556 19.9081C16.0556 19.6035 15.9346 19.3113 15.7193 19.0959L8.40878 11.7854ZM15.189 20.1901L13.7456 21.6332C13.6697 21.7058 13.5687 21.7463 13.4637 21.7463C13.3586 21.7463 13.2577 21.7058 13.1818 21.6332L5.60635 14.0577C5.57154 14.0229 5.5302 13.9953 5.48471 13.9764C5.43922 13.9576 5.39046 13.9479 5.34121 13.9479C5.29197 13.9479 5.24321 13.9576 5.19771 13.9764C5.15222 13.9953 5.11089 14.0229 5.07607 14.0577L4.17337 14.9513L3.09103 9.53027L8.51333 10.6201C8.51167 10.6189 7.61534 11.5205 7.61336 11.5203C7.54356 11.5908 7.50442 11.6861 7.50442 11.7854C7.50442 11.8847 7.54356 11.9799 7.61336 12.0505L15.189 19.6262C15.2632 19.7012 15.3048 19.8026 15.3048 19.9081C15.3048 20.0137 15.2632 20.115 15.189 20.1901Z" fill="#A5B4CB"/>
<path d="M21.6495 14.317L20.562 8.90093C20.5336 8.7682 20.4701 8.64551 20.3781 8.54565C20.2862 8.44578 20.1691 8.3724 20.0392 8.33314C19.9092 8.29388 19.7711 8.29017 19.6393 8.32241C19.5074 8.35465 19.3866 8.42165 19.2894 8.51644L18.6588 9.14684L11.3485 1.83654C11.1297 1.62764 10.8388 1.51108 10.5363 1.51108C10.2338 1.51108 9.94286 1.62764 9.72404 1.83654L8.28077 3.2796C8.06673 3.49575 7.94666 3.78765 7.94666 4.09185C7.94666 4.39605 8.06673 4.68795 8.28077 4.9041L15.5913 12.2146L14.9605 12.845C14.8657 12.9423 14.7988 13.0631 14.7666 13.195C14.7344 13.3269 14.7381 13.465 14.7775 13.595C14.8168 13.7249 14.8902 13.8419 14.9901 13.9339C15.0901 14.0258 15.2128 14.0892 15.3456 14.1176L20.7647 15.2056C20.8861 15.2276 21.011 15.2198 21.1287 15.1828C21.2463 15.1458 21.3533 15.0809 21.4403 14.9935C21.5273 14.9061 21.5918 14.7989 21.6283 14.681C21.6647 14.5632 21.672 14.4383 21.6495 14.317ZM15.4909 13.3753L16.3867 12.4797C16.4565 12.4091 16.4956 12.3139 16.4956 12.2146C16.4956 12.1153 16.4565 12.02 16.3867 11.9495L8.81106 4.37383C8.73683 4.29875 8.69521 4.19743 8.69521 4.09185C8.69521 3.98628 8.73683 3.88496 8.81106 3.80987L10.2545 2.36681C10.3295 2.29247 10.4308 2.25076 10.5364 2.25076C10.642 2.25076 10.7433 2.29247 10.8183 2.36681L18.3937 9.94226C18.4285 9.97709 18.4698 10.0047 18.5153 10.0236C18.5608 10.0424 18.6096 10.0521 18.6588 10.0521C18.7081 10.0521 18.7568 10.0424 18.8023 10.0236C18.8478 10.0047 18.8892 9.97709 18.924 9.94226C18.926 9.94233 19.8204 9.03392 19.8267 9.04869L20.909 14.4697L15.4909 13.3753Z" fill="#A5B4CB"/>
</g>
<defs>
<clipPath id="clip0_1_380">
<rect width="24" height="24" fill="white"/>
</clipPath>
</defs>
</svg>
