<svg width="35" height="39" viewBox="0 0 35 39" fill="none" xmlns="http://www.w3.org/2000/svg">
<g clip-path="url(#clip0_642_8836)">
<path d="M23.0702 11.9389C22.7595 10.6972 22.0429 9.59483 21.0342 8.80688C20.0254 8.01894 18.7824 7.59059 17.5024 7.58984C16.2224 7.5891 14.9788 8.01601 13.9691 8.80278C12.9595 9.58955 12.2416 10.6911 11.9295 11.9325C10.4574 12.0706 9.09509 12.7706 8.12554 13.8869C7.156 15.0032 6.65375 16.4502 6.72314 17.9271C6.79252 19.4041 7.4282 20.7976 8.49813 21.8181C9.56806 22.8386 10.99 23.4078 12.4686 23.4073H14.6248C14.8155 23.4073 14.9983 23.3316 15.1331 23.1968C15.2679 23.062 15.3436 22.8792 15.3436 22.6886C15.3436 22.4979 15.2679 22.3151 15.1331 22.1803C14.9983 22.0455 14.8155 21.9698 14.6248 21.9698H12.4686C11.9023 21.9715 11.3412 21.8615 10.8173 21.6463C10.2935 21.4312 9.81713 21.1149 9.41551 20.7156C8.6044 19.9092 8.14685 18.8136 8.14352 17.6699C8.14018 16.5261 8.59133 15.4279 9.39772 14.6168C10.2041 13.8057 11.2997 13.3481 12.4434 13.3448C12.6279 13.3587 12.8109 13.3036 12.957 13.1902C13.103 13.0767 13.2018 12.9131 13.2341 12.731C13.3804 11.7047 13.8921 10.7656 14.6752 10.0862C15.4583 9.40688 16.4603 9.03285 17.497 9.03285C18.5337 9.03285 19.5356 9.40688 20.3187 10.0862C21.1018 10.7656 21.6135 11.7047 21.7599 12.731C21.7975 12.9068 21.8949 13.0641 22.0356 13.176C22.1762 13.288 22.3514 13.3476 22.5311 13.3448C23.6748 13.3448 24.7717 13.7992 25.5805 14.6079C26.3892 15.4167 26.8436 16.5136 26.8436 17.6573C26.8436 18.8011 26.3892 19.898 25.5805 20.7067C24.7717 21.5155 23.6748 21.9698 22.5311 21.9698H20.3748C20.1842 21.9698 20.0014 22.0455 19.8666 22.1803C19.7318 22.3151 19.6561 22.4979 19.6561 22.6886C19.6561 22.8792 19.7318 23.062 19.8666 23.1968C20.0014 23.3316 20.1842 23.4073 20.3748 23.4073H22.5311C23.9989 23.3919 25.4052 22.8158 26.4619 21.797C27.5186 20.7782 28.1457 19.3938 28.2146 17.9276C28.2835 16.4614 27.7891 15.0243 26.8326 13.9108C25.8761 12.7974 24.53 12.0919 23.0702 11.9389Z" fill="#0095FF"/>
<path d="M20.5846 18.1643C20.7201 18.2952 20.9017 18.3676 21.0901 18.366C21.2786 18.3643 21.4589 18.2888 21.5921 18.1555C21.7254 18.0222 21.801 17.842 21.8026 17.6535C21.8043 17.4651 21.7318 17.2835 21.6009 17.1479L18.0071 13.5542C17.8724 13.4194 17.6896 13.3438 17.499 13.3438C17.3084 13.3438 17.1256 13.4194 16.9908 13.5542L13.3971 17.1479C13.2661 17.2835 13.1937 17.4651 13.1953 17.6535C13.197 17.842 13.2726 18.0222 13.4058 18.1555C13.5391 18.2888 13.7194 18.3643 13.9078 18.366C14.0963 18.3676 14.2778 18.2952 14.4134 18.1643L16.7802 15.7974V24.8436C16.7802 25.0342 16.856 25.217 16.9907 25.3518C17.1255 25.4866 17.3084 25.5623 17.499 25.5623C17.6896 25.5623 17.8724 25.4866 18.0072 25.3518C18.142 25.217 18.2177 25.0342 18.2177 24.8436V15.7974L20.5846 18.1643Z" fill="#0095FF"/>
</g>
<path d="M5.96902 28.7273H7.06987V33.5107C7.06987 34.0196 6.95031 34.4706 6.7112 34.8636C6.47209 35.2543 6.13592 35.562 5.70268 35.7869C5.26944 36.0095 4.76163 36.1207 4.17924 36.1207C3.59922 36.1207 3.0926 36.0095 2.65936 35.7869C2.22612 35.562 1.88994 35.2543 1.65083 34.8636C1.41172 34.4706 1.29217 34.0196 1.29217 33.5107V28.7273H2.38947V33.4219C2.38947 33.7509 2.46168 34.0433 2.60609 34.299C2.75287 34.5547 2.96002 34.7559 3.22754 34.9027C3.49506 35.0471 3.81229 35.1193 4.17924 35.1193C4.54856 35.1193 4.86698 35.0471 5.1345 34.9027C5.40439 34.7559 5.61035 34.5547 5.7524 34.299C5.89681 34.0433 5.96902 33.7509 5.96902 33.4219V28.7273ZM8.57999 38.0455V30.5455H9.61692V31.4297H9.7057C9.76725 31.3161 9.85603 31.1847 9.97203 31.0355C10.088 30.8864 10.249 30.7562 10.455 30.6449C10.661 30.5312 10.9332 30.4744 11.2718 30.4744C11.7121 30.4744 12.1051 30.5857 12.4507 30.8082C12.7964 31.0308 13.0674 31.3516 13.2639 31.7706C13.4628 32.1896 13.5622 32.6939 13.5622 33.2834C13.5622 33.8729 13.464 34.3783 13.2675 34.7997C13.071 35.2187 12.8011 35.5419 12.4578 35.7692C12.1146 35.9941 11.7227 36.1065 11.2824 36.1065C10.951 36.1065 10.6799 36.0509 10.4692 35.9396C10.2609 35.8284 10.0975 35.6982 9.97914 35.549C9.86077 35.3999 9.76962 35.2673 9.7057 35.1513H9.64178V38.0455H8.57999ZM9.62047 33.2727C9.62047 33.6562 9.67611 33.9924 9.78738 34.2812C9.89864 34.5701 10.0596 34.7962 10.2703 34.9595C10.481 35.1205 10.7391 35.201 11.0445 35.201C11.3617 35.201 11.6269 35.117 11.8399 34.9489C12.053 34.7784 12.214 34.5476 12.3229 34.2564C12.4342 33.9652 12.4898 33.6373 12.4898 33.2727C12.4898 32.9129 12.4353 32.5897 12.3264 32.3033C12.2199 32.0168 12.0589 31.7907 11.8435 31.625C11.6304 31.4593 11.3641 31.3764 11.0445 31.3764C10.7367 31.3764 10.4763 31.4557 10.2632 31.6143C10.0525 31.773 9.89273 31.9943 9.78382 32.2784C9.67492 32.5625 9.62047 32.8939 9.62047 33.2727ZM15.8137 28.7273V36H14.7519V28.7273H15.8137ZM19.5397 36.1101C19.0283 36.1101 18.5821 35.9929 18.2009 35.7585C17.8198 35.5241 17.5238 35.1963 17.3131 34.7749C17.1024 34.3535 16.9971 33.861 16.9971 33.2976C16.9971 32.7318 17.1024 32.237 17.3131 31.8132C17.5238 31.3894 17.8198 31.0604 18.2009 30.826C18.5821 30.5916 19.0283 30.4744 19.5397 30.4744C20.051 30.4744 20.4973 30.5916 20.8785 30.826C21.2596 31.0604 21.5555 31.3894 21.7662 31.8132C21.9769 32.237 22.0823 32.7318 22.0823 33.2976C22.0823 33.861 21.9769 34.3535 21.7662 34.7749C21.5555 35.1963 21.2596 35.5241 20.8785 35.7585C20.4973 35.9929 20.051 36.1101 19.5397 36.1101ZM19.5432 35.2188C19.8747 35.2188 20.1493 35.1312 20.3671 34.956C20.5849 34.7808 20.7459 34.5476 20.8501 34.2564C20.9566 33.9652 21.0099 33.6444 21.0099 33.294C21.0099 32.946 20.9566 32.6264 20.8501 32.3352C20.7459 32.0417 20.5849 31.8061 20.3671 31.6286C20.1493 31.451 19.8747 31.3622 19.5432 31.3622C19.2094 31.3622 18.9324 31.451 18.7123 31.6286C18.4945 31.8061 18.3323 32.0417 18.2258 32.3352C18.1216 32.6264 18.0695 32.946 18.0695 33.294C18.0695 33.6444 18.1216 33.9652 18.2258 34.2564C18.3323 34.5476 18.4945 34.7808 18.7123 34.956C18.9324 35.1312 19.2094 35.2188 19.5432 35.2188ZM24.8548 36.1207C24.5092 36.1207 24.1967 36.0568 23.9173 35.929C23.638 35.7988 23.4166 35.6106 23.2533 35.3643C23.0923 35.1181 23.0118 34.8163 23.0118 34.4588C23.0118 34.151 23.071 33.8977 23.1894 33.6989C23.3077 33.5 23.4675 33.3426 23.6688 33.2266C23.87 33.1106 24.0949 33.023 24.3435 32.9638C24.5921 32.9046 24.8454 32.8596 25.1034 32.8288C25.4301 32.791 25.6953 32.7602 25.8989 32.7365C26.1025 32.7105 26.2504 32.669 26.3428 32.6122C26.4351 32.5554 26.4813 32.4631 26.4813 32.3352V32.3104C26.4813 32.0002 26.3937 31.7599 26.2185 31.5895C26.0457 31.419 25.7876 31.3338 25.4443 31.3338C25.0869 31.3338 24.8051 31.4131 24.5992 31.5717C24.3956 31.728 24.2547 31.902 24.1766 32.0938L23.1787 31.8665C23.2971 31.535 23.4699 31.2675 23.6972 31.0639C23.9268 30.858 24.1908 30.7088 24.4891 30.6165C24.7874 30.5218 25.1011 30.4744 25.4301 30.4744C25.6479 30.4744 25.8788 30.5005 26.1226 30.5526C26.3688 30.6023 26.5985 30.6946 26.8115 30.8295C27.027 30.9645 27.2033 31.1574 27.3406 31.4084C27.478 31.657 27.5466 31.9801 27.5466 32.3778V36H26.5097V35.2543H26.4671C26.3984 35.3916 26.2954 35.5265 26.1581 35.6591C26.0208 35.7917 25.8444 35.9018 25.629 35.9893C25.4136 36.0769 25.1555 36.1207 24.8548 36.1207ZM25.0857 35.2685C25.3792 35.2685 25.6302 35.2105 25.8385 35.0945C26.0492 34.9785 26.209 34.8269 26.3179 34.6399C26.4292 34.4505 26.4848 34.2481 26.4848 34.0327V33.3295C26.4469 33.3674 26.3736 33.4029 26.2646 33.4361C26.1581 33.4669 26.0362 33.4941 25.8989 33.5178C25.7616 33.5391 25.6278 33.5592 25.4976 33.5781C25.3674 33.5947 25.2585 33.6089 25.1709 33.6207C24.9649 33.6468 24.7767 33.6906 24.6063 33.7521C24.4382 33.8137 24.3032 33.9025 24.2014 34.0185C24.102 34.1321 24.0523 34.2836 24.0523 34.473C24.0523 34.7358 24.1494 34.9347 24.3435 35.0696C24.5376 35.2022 24.785 35.2685 25.0857 35.2685ZM31.0028 36.1065C30.5624 36.1065 30.1694 35.9941 29.8238 35.7692C29.4805 35.5419 29.2106 35.2187 29.0141 34.7997C28.82 34.3783 28.7229 33.8729 28.7229 33.2834C28.7229 32.6939 28.8212 32.1896 29.0177 31.7706C29.2165 31.3516 29.4888 31.0308 29.8344 30.8082C30.1801 30.5857 30.5719 30.4744 31.0099 30.4744C31.3484 30.4744 31.6206 30.5312 31.8266 30.6449C32.0349 30.7562 32.1959 30.8864 32.3096 31.0355C32.4256 31.1847 32.5155 31.3161 32.5795 31.4297H32.6434V28.7273H33.7052V36H32.6682V35.1513H32.5795C32.5155 35.2673 32.4232 35.3999 32.3025 35.549C32.1841 35.6982 32.0207 35.8284 31.8124 35.9396C31.6041 36.0509 31.3342 36.1065 31.0028 36.1065ZM31.2371 35.201C31.5425 35.201 31.8006 35.1205 32.0113 34.9595C32.2243 34.7962 32.3853 34.5701 32.4942 34.2812C32.6055 33.9924 32.6611 33.6562 32.6611 33.2727C32.6611 32.8939 32.6067 32.5625 32.4978 32.2784C32.3889 31.9943 32.2291 31.773 32.0184 31.6143C31.8077 31.4557 31.5473 31.3764 31.2371 31.3764C30.9175 31.3764 30.6512 31.4593 30.4381 31.625C30.2251 31.7907 30.0641 32.0168 29.9552 32.3033C29.8486 32.5897 29.7954 32.9129 29.7954 33.2727C29.7954 33.6373 29.8498 33.9652 29.9587 34.2564C30.0676 34.5476 30.2286 34.7784 30.4417 34.9489C30.6571 35.117 30.9223 35.201 31.2371 35.201Z" fill="#0095FF"/>
<defs>
<clipPath id="clip0_642_8836">
<rect width="23" height="23" fill="white" transform="translate(6)"/>
</clipPath>
</defs>
</svg>
