<svg width="27" height="32" viewBox="0 0 27 32" fill="none" xmlns="http://www.w3.org/2000/svg">
<g id="Wallet">
<path id="Vector" d="M4.16699 8V24C4.16699 24.5304 4.34259 25.0391 4.65515 25.4142C4.96771 25.7893 5.39163 26 5.83366 26H22.5003C22.7213 26 22.9333 25.8946 23.0896 25.7071C23.2459 25.5196 23.3337 25.2652 23.3337 25V11C23.3337 10.7348 23.2459 10.4804 23.0896 10.2929C22.9333 10.1054 22.7213 10 22.5003 10H5.83366C5.39163 10 4.96771 9.78929 4.65515 9.41421C4.34259 9.03914 4.16699 8.53043 4.16699 8ZM4.16699 8C4.16699 7.46957 4.34259 6.96086 4.65515 6.58579C4.96771 6.21071 5.39163 6 5.83366 6H20.0003" stroke="#0095FF" stroke-width="2" stroke-linecap="round" stroke-linejoin="round"/>
<path id="Vector_2" d="M19 18C19 18.1925 18.9345 18.3379 18.8657 18.4205C18.7993 18.5001 18.7543 18.5 18.7501 18.5H18.75H18.7499C18.7457 18.5 18.7007 18.5001 18.6343 18.4205C18.5655 18.3379 18.5 18.1925 18.5 18C18.5 17.8075 18.5655 17.6621 18.6343 17.5795C18.7007 17.4999 18.7457 17.5 18.7499 17.5L18.75 17.5L18.7501 17.5C18.7543 17.5 18.7993 17.4999 18.8657 17.5795C18.9345 17.6621 19 17.8075 19 18Z" fill="#2B3674" stroke="#0095FF" stroke-width="2"/>
</g>
</svg>
